# xmcd
#
# Track frame offsets: 
#        183
#        19315
#        39268
#        71163
#        96495
#        122073
#
# Disc length: 1975 seconds
#
# Revision: 0
# Processed by: cddbd v1.5.2PL0 Copyright (c) Steve Scherf et al.
# Submitted via: ExactAudioCopy v1.3
#
DISCID=5007b506
DTITLE=Jermaine Jackson - You Said, You Said (Promo CDM)
DYEAR=1991
DGENRE=Funk
TTITLE0=You Said, You Said (Album Version Edit)
TTITLE1=You Said, You Said (Top Pop Mix)
TTITLE2=You Said, You Said (Extended Remix)
TTITLE3=You Said, You Said (Album Version)
TTITLE4=You Said, You Said (Percussapella Mix)
TTITLE5=You Said, You Said (Instrumental Mix)
EXTD=
EXTT0=
EXTT1=
EXTT2=
EXTT3=
EXTT4=
EXTT5=
PLAYORDER=
